<?xml version="1.0" encoding="utf-8" ?>
<svg baseProfile="full" height="100%" version="1.1" width="100%" xmlns="http://www.w3.org/2000/svg" xmlns:ev="http://www.w3.org/2001/xml-events" xmlns:xlink="http://www.w3.org/1999/xlink"><defs /><line style="stroke-width:1;stroke:#000000;" x1="0" x2="0" y1="0" y2="310.5" /><line style="stroke-width:1;stroke:#000000;" x1="62" x2="62" y1="0" y2="310.5" /><line style="stroke-width:1;stroke:#000000;" x1="0" x2="62" y1="310" y2="310" /><rect fill="#CFCFFF" height="30" style="stroke-width:3;stroke:#000000;" width="50" x="6" y="276" /><text style="text-anchor:middle;alignment-baseline:middle;font-size:10pt;font-family:monospace;" x="31.0" y="291.0">line</text><rect fill="#CFCFFF" height="30" style="stroke-width:3;stroke:#000000;" width="50" x="6" y="242" /><text style="text-anchor:middle;alignment-baseline:middle;font-size:10pt;font-family:monospace;" x="31.0" y="257.0">thin</text><rect fill="#CFCFFF" height="30" style="stroke-width:3;stroke:#000000;" width="50" x="6" y="208" /><text style="text-anchor:middle;alignment-baseline:middle;font-size:10pt;font-family:monospace;" x="31.0" y="223.0">with</text><rect fill="#CFCFFF" height="30" style="stroke-width:3;stroke:#000000;" width="50" x="6" y="174" /><text style="text-anchor:middle;alignment-baseline:middle;font-size:10pt;font-family:monospace;" x="31.0" y="189.0">stack</text><rect fill="#CFCFFF" height="30" style="stroke-width:3;stroke:#000000;" width="50" x="6" y="140" /><text style="text-anchor:middle;alignment-baseline:middle;font-size:10pt;font-family:monospace;" x="31.0" y="155.0">and</text><rect fill="#FFCFCF" height="30" style="stroke-width:3;stroke:#000000;" width="50" x="6" y="106" /><text style="text-anchor:middle;alignment-baseline:middle;font-size:10pt;font-family:monospace;" x="31.0" y="121.0">line</text><rect fill="#FFCFCF" height="30" style="stroke-width:3;stroke:#000000;" width="50" x="6" y="72" /><text style="text-anchor:middle;alignment-baseline:middle;font-size:10pt;font-family:monospace;" x="31.0" y="87.0">thick</text><rect fill="#FFCFCF" height="30" style="stroke-width:3;stroke:#000000;" width="50" x="6" y="38" /><text style="text-anchor:middle;alignment-baseline:middle;font-size:10pt;font-family:monospace;" x="31.0" y="53.0">with</text><rect fill="#FFCFCF" height="30" style="stroke-width:3;stroke:#000000;" width="50" x="6" y="4" /><text style="text-anchor:middle;alignment-baseline:middle;font-size:10pt;font-family:monospace;" x="31.0" y="19.0">block</text></svg>